<svg aria-hidden="true" style="position: absolute; width: 0; height: 0; overflow: hidden;" version="1.1" xmlns="http://www.w3.org/2000/svg" xmlns:xlink="http://www.w3.org/1999/xlink">
<defs>
<symbol id="icon-googl" viewBox="0 0 32 32">
<path d="M23.33 21.272c1.792-2.241 2.864-5.083 2.864-8.175 0-7.233-5.864-13.097-13.097-13.097s-13.097 5.864-13.097 13.097c0 7.233 5.864 13.097 13.097 13.097 3.092 0 5.934-1.072 8.175-2.864l8.244 8.244c0.568 0.568 1.49 0.568 2.058 0s0.568-1.49 0-2.058l-8.244-8.244zM13.097 23.298c-5.634 0-10.201-4.567-10.201-10.201s4.567-10.201 10.201-10.201c5.634 0 10.201 4.567 10.201 10.201s-4.567 10.201-10.201 10.201z"></path>
</symbol>
<symbol id="icon-man" viewBox="0 0 26 32">
<path d="M13.091 16c4.017 0 7.273-3.582 7.273-8s-3.256-8-7.273-8c-4.017 0-7.273 3.582-7.273 8s3.256 8 7.273 8zM13.091 12.8c-2.41 0-4.364-2.149-4.364-4.8s1.954-4.8 4.364-4.8c2.41 0 4.364 2.149 4.364 4.8s-1.954 4.8-4.364 4.8z"></path>
<path d="M23.422 19.067c-1.225-1.23-3.121-1.495-4.635-0.596-0.277 0.164-0.521 0.315-0.745 0.454-0.596 0.368-1.059 0.654-1.656 0.899-0.75 0.308-1.719 0.541-3.295 0.541-1.561 0-2.547-0.22-3.307-0.517-0.673-0.263-1.204-0.593-1.904-1.028-0.137-0.085-0.28-0.174-0.431-0.267-1.519-0.933-3.47-0.716-4.736 0.564-0.552 0.558-1.198 1.28-1.715 2.066-0.493 0.75-0.996 1.747-0.996 2.818v3.637c0 2.41 1.954 4.363 4.364 4.363h17.455c2.41 0 4.364-1.953 4.364-4.363v-3.637c0-1.085-0.517-2.096-1.019-2.852-0.527-0.795-1.185-1.523-1.741-2.081zM20.272 20.973c0.348-0.206 0.787-0.156 1.090 0.148 0.487 0.489 0.998 1.064 1.377 1.636 0.405 0.61 0.534 1.028 0.534 1.244v3.637c0 0.803-0.651 1.454-1.455 1.454h-17.455c-0.804 0-1.455-0.651-1.455-1.454v-3.637c0-0.211 0.124-0.621 0.518-1.22 0.369-0.562 0.869-1.13 1.352-1.618 0.303-0.306 0.764-0.366 1.146-0.131 0.12 0.074 0.243 0.15 0.368 0.229 0.702 0.438 1.487 0.928 2.431 1.297 1.156 0.452 2.51 0.716 4.366 0.716 1.891 0 3.246-0.284 4.401-0.759 0.837-0.344 1.575-0.8 2.226-1.203 0.192-0.119 0.377-0.233 0.554-0.338z"></path>
</symbol>
<symbol id="icon-bag" viewBox="0 0 29 32">
<path d="M21.224 7.273c-0.028-0.117-0.056-0.235-0.086-0.353-0.389-1.536-1.002-3.205-2.002-4.52-1.031-1.356-2.536-2.4-4.59-2.4s-3.56 1.044-4.59 2.4c-1 1.315-1.613 2.984-2.002 4.52-0.030 0.118-0.059 0.235-0.086 0.353h-2.36c-2.329 0-4.26 1.781-4.415 4.073l-1.082 16c-0.17 2.519 1.855 4.654 4.415 4.654h20.241c2.559 0 4.585-2.135 4.415-4.654l-1.081-16c-0.155-2.292-2.085-4.073-4.415-4.073h-2.36zM8.646 14.545c0.845 0 1.472-0.628 1.475-1.457 0-0.035 0.001-0.069 0.001-0.104 0.001-0.077 0.004-0.192 0.009-0.342 0.011-0.299 0.033-0.73 0.076-1.249 0.031-0.368 0.073-0.777 0.129-1.212h8.416c0.056 0.434 0.098 0.843 0.129 1.212 0.044 0.519 0.066 0.95 0.076 1.249 0.005 0.149 0.008 0.265 0.009 0.342 0.001 0.036 0.001 0.071 0.001 0.107 0 0 0 1.454 1.475 1.454s1.475-1.457 1.475-1.457c-0-0.051-0.001-0.102-0.002-0.153-0.001-0.094-0.005-0.228-0.011-0.397-0.012-0.338-0.037-0.815-0.085-1.387-0.025-0.298-0.057-0.624-0.097-0.97h1.86c0.776 0 1.42 0.594 1.472 1.358l1.082 16c0.057 0.84-0.618 1.551-1.472 1.551h-20.241c-0.853 0-1.528-0.712-1.472-1.551l1.082-16c0.052-0.764 0.695-1.358 1.472-1.358h1.86c-0.040 0.346-0.072 0.672-0.098 0.97-0.048 0.572-0.073 1.049-0.085 1.387-0.006 0.169-0.009 0.303-0.011 0.397-0.001 0.050-0.002 0.1-0.002 0.15-0.001 0.83 0.632 1.46 1.475 1.46zM10.908 7.273h7.275c-0.341-1.232-0.805-2.335-1.407-3.127-0.628-0.826-1.335-1.236-2.231-1.236s-1.602 0.41-2.231 1.236c-0.602 0.792-1.066 1.896-1.407 3.127z"></path>
</symbol>
<symbol id="icon-stem" viewBox="0 0 26 32">
<path d="M16.382 0.479c-0.256 0.271-0.862 0.845-1.346 1.286-1.613 1.457-1.941 1.978-1.985 3.168-0.033 0.968 0.2 1.701 0.806 2.536 0.161 0.223 0.295 0.393 0.295 0.372 0-0.016-0.1-0.223-0.222-0.457-0.467-0.893-0.606-1.978-0.35-2.748 0.239-0.723 0.589-1.159 1.774-2.206 0.25-0.218 0.556-0.521 0.684-0.664l0.239-0.266-0.033 1.116c-0.017 0.739-0.056 1.249-0.117 1.515-0.206 0.898-0.606 1.611-1.335 2.392-0.528 0.569-0.678 0.893-0.534 1.159 0.022 0.048 0.061 0.25 0.083 0.441l0.033 0.351-0.317 0.202c-1.073 0.68-1.829 1.664-2.135 2.78-0.083 0.298-0.117 0.585-0.117 1.047-0.006 0.983 0.183 1.802 0.662 2.833l0.25 0.542-0.089 0.425c-0.089 0.431-0.117 1.712-0.039 2.047 0.028 0.133 0.061 0.16 0.2 0.16h0.167l0.039-0.686c0.145-2.445 0.99-3.865 2.975-4.997 1.529-0.872 1.98-1.361 2.997-3.253 0.801-1.505 1.056-1.903 1.674-2.663l0.35-0.431-0.495 0.202c-0.801 0.33-1.952 0.659-3.342 0.957-1.335 0.282-1.941 0.447-2.402 0.67-0.145 0.069-0.278 0.128-0.295 0.128s-0.022-0.213-0.005-0.478c0.028-0.569 0.033-0.579 0.895-1.441 0.467-0.463 0.662-0.707 0.823-1.010 0.356-0.675 0.384-0.872 0.345-2.174-0.039-1.223 0.028-2.020 0.25-2.908 0.056-0.229 0.1-0.42 0.095-0.425s-0.222 0.213-0.478 0.478zM18.945 8.814c-1.118 1.967-1.896 2.802-3.681 3.955-0.35 0.229-0.762 0.516-0.912 0.633-0.55 0.436-1.179 1.297-1.418 1.94-0.056 0.154-0.117 0.26-0.133 0.234-0.089-0.133-0.328-1.217-0.384-1.722-0.184-1.675 0.467-3.142 1.835-4.125 0.784-0.569 1.496-0.829 2.93-1.079 0.612-0.106 1.585-0.377 2.002-0.553 0.095-0.037 0.172-0.064 0.183-0.058 0.006 0.005-0.183 0.356-0.423 0.776z"></path>
<path d="M6.598 1.806c0.332 1.198 0.431 2.768 0.271 4.237-0.199 1.831-0.033 2.385 1.15 3.891 0.321 0.405 0.68 0.932 0.807 1.166 0.359 0.697 0.553 1.688 0.558 2.88v0.495l-0.133-0.053c-0.309-0.112-0.868-0.16-2.271-0.186-0.818-0.016-1.664-0.053-1.879-0.075-0.21-0.027-0.392-0.037-0.398-0.032-0.011 0.005 0.099 0.091 0.249 0.192 0.625 0.431 1.255 0.99 1.984 1.762 0.431 0.452 0.945 0.953 1.15 1.107 0.873 0.665 1.874 1.054 3.084 1.192 0.497 0.058 0.299-0.122-0.542-0.474-1.337-0.564-2.006-1.022-3.034-2.071-0.387-0.394-0.857-0.814-1.039-0.937l-0.332-0.213h0.652c1.713 0 2.681 0.319 3.504 1.155 0.409 0.41 0.702 0.921 0.851 1.469 0.044 0.176 0.094 0.33 0.111 0.346 0.055 0.048 0.039-0.628-0.022-1.001-0.127-0.772-0.768-1.624-1.503-1.996l-0.321-0.16v-0.878c0-1.746-0.16-2.348-1-3.71-1.111-1.81-1.293-2.523-1.26-5.031 0.011-0.777 0.028-1.416 0.033-1.411 0 0.005 0.116 0.154 0.249 0.33 0.138 0.176 0.63 0.703 1.1 1.171 1.139 1.134 1.575 1.789 1.846 2.773 0.304 1.081 0.055 2.592-0.663 4.051-0.133 0.271-0.232 0.495-0.227 0.495 0.011 0 0.105-0.128 0.216-0.287 0.868-1.256 1.304-2.672 1.238-3.998-0.039-0.724-0.188-1.288-0.503-1.916-0.321-0.649-0.691-1.107-1.763-2.177-0.835-0.836-1.409-1.453-2.012-2.135l-0.232-0.266 0.083 0.293z"></path>
<path d="M16.565 14.854c-1.27 0.259-2.133 1.339-2.138 2.662 0 0.265-0.011 0.286-0.173 0.339-0.29 0.095-0.078 0.143 0.819 0.18 1.281 0.053 2.066-0.090 2.734-0.503 0.184-0.111 0.646-0.466 1.030-0.789 0.779-0.646 1.18-0.921 1.837-1.254l0.44-0.222-0.535-0.037c-0.29-0.016-0.807-0.085-1.153-0.143s-0.891-0.153-1.214-0.206c-0.679-0.116-1.169-0.127-1.648-0.026zM18.402 15.515c0.273 0.063 0.696 0.132 0.93 0.148l0.434 0.037-0.607 0.466c-0.924 0.709-1.537 1.032-2.322 1.222-0.401 0.101-2.194 0.36-2.233 0.323-0.050-0.048 0.111-0.54 0.306-0.926 0.34-0.672 0.98-1.154 1.787-1.349 0.412-0.101 1.058-0.069 1.704 0.079z"></path>
<path d="M4.143 20.643c-0.067 2.875 0.089 3.848 0.842 5.296 0.396 0.759 1.037 1.646 1.494 2.063 0.111 0.102 0.201 0.198 0.201 0.214 0 0.021-1.388 0.027-3.077 0.016-1.695-0.011-3.138 0-3.211 0.016-0.067 0.016-0.156 0.091-0.19 0.16-0.050 0.112-0.045 0.15 0.039 0.241 0.1 0.107 0.162 0.107 12.581 0.107 8.501 0 12.514-0.016 12.592-0.053 0.145-0.075 0.145-0.353 0-0.427-0.073-0.032-1.221-0.053-3.35-0.053h-3.239l0.34-0.39c0.97-1.096 1.6-2.298 2.012-3.831 0.117-0.422 0.128-0.604 0.145-2.741l0.028-2.282h-17.169l-0.039 1.667z"></path>
<path d="M1.83 29.479c1.884 0.85 4.787 1.543 7.495 1.789 0.479 0.047 0.697 0.084 0.613 0.105-0.117 0.032-0.123 0.037-0.028 0.042 0.061 0.005 0.44 0.031 0.836 0.063 2.040 0.142 6.408 0.058 6.286-0.126-0.017-0.026-0.011-0.037 0.022-0.021 0.028 0.016 0.128 0.011 0.217-0.016 0.156-0.042 0.156-0.042-0.061-0.053-0.134-0.005 0.15-0.068 0.697-0.157 1.7-0.273 3.098-0.603 4.246-1.002 0.658-0.231 1.934-0.756 2.023-0.84 0.028-0.026-4.324-0.047-11.424-0.042l-11.479 0.005 0.557 0.252z"></path>
</symbol>
</defs>
</svg>
